<?xml version="1.0" encoding="UTF-8" standalone="no"?>
<!-- Created with Inkscape (http://www.inkscape.org/) -->

<svg
   width="171.97968mm"
   height="171.97925mm"
   viewBox="0 0 171.97968 171.97925"
   version="1.1"
   id="svg5"
   inkscape:version="1.1.2 (0a00cf5339, 2022-02-04)"
   sodipodi:docname="chiron-dark.svg"
   xmlns:inkscape="http://www.inkscape.org/namespaces/inkscape"
   xmlns:sodipodi="http://sodipodi.sourceforge.net/DTD/sodipodi-0.dtd"
   xmlns="http://www.w3.org/2000/svg"
   xmlns:svg="http://www.w3.org/2000/svg">
  <sodipodi:namedview
     id="namedview7"
     pagecolor="#000000"
     bordercolor="#666666"
     borderopacity="1.0"
     inkscape:pageshadow="2"
     inkscape:pageopacity="1"
     inkscape:pagecheckerboard="0"
     inkscape:document-units="mm"
     showgrid="false"
     fit-margin-top="0"
     fit-margin-left="0"
     fit-margin-right="0"
     fit-margin-bottom="0"
     inkscape:zoom="0.75187991"
     inkscape:cx="345.1349"
     inkscape:cy="484.78486"
     inkscape:window-width="1846"
     inkscape:window-height="1016"
     inkscape:window-x="721"
     inkscape:window-y="1107"
     inkscape:window-maximized="1"
     inkscape:current-layer="g836" />
  <defs
     id="defs2" />
  <g
     inkscape:label="Layer 1"
     inkscape:groupmode="layer"
     id="layer1"
     transform="translate(-1.984093,-20.282885)">
    <g
       style="fill:none"
       id="g836"
       transform="matrix(8.8194444,0,0,8.8194444,-17.790777,0.52741759)">
      <path
         d="m 21.6897,2.71002 c -0.08,-0.18 -0.22,-0.33003 -0.41,-0.41003 -0.09,-0.04 -0.19,-0.06 -0.29,-0.06 h -9 c -0.41,0 -0.75,0.34 -0.75,0.75 0,0.41 0.34,0.75 0.75,0.75 h 7.19 L 2.45969,20.46 c -0.29,0.29 -0.29,0.77 0,1.06 0.15,0.15 0.33997,0.22 0.52997,0.22 0.19,0 0.38003,-0.07 0.53003,-0.22 L 20.2397,4.79999 V 12 c 0,0.41 0.34,0.75 0.75,0.75 0.41,0 0.75,-0.34 0.75,-0.75 V 3 c 0.01,-0.1 -0.01,-0.18998 -0.05,-0.28998 z"
         fill="#292d32"
         id="path824"
         style="fill:#c0dbfb;fill-opacity:1" />
      <path
         opacity="0.4"
         d="m 17.3991,18.1501 c -0.19,0 -0.3801,-0.0701 -0.53,-0.2201 L 6.06906,7.13004 c -0.29,-0.29 -0.29,-0.77 0,-1.06 0.29,-0.29 0.77,-0.29 1.06,0 L 17.929,16.87 c 0.29,0.29 0.29,0.77 0,1.06 -0.15,0.15 -0.3399,0.2201 -0.5299,0.2201 z"
         fill="#292d32"
         id="path826"
         style="fill:#c0dbfb;fill-opacity:1" />
    </g>
  </g>
</svg>
